<?xml version="1.0" standalone="no"?>
<!DOCTYPE svg PUBLIC "-//W3C//DTD SVG 20010904//EN"
 "http://www.w3.org/TR/2001/REC-SVG-20010904/DTD/svg10.dtd">
<svg version="1.0" xmlns="http://www.w3.org/2000/svg"
 width="1416.000000pt" height="1416.000000pt" viewBox="0 0 1416.000000 1416.000000"
 preserveAspectRatio="xMidYMid meet">
<metadata>
Created by potrace 1.11, written by Peter Selinger 2001-2013
</metadata>
<g transform="translate(0.000000,1416.000000) scale(0.100000,-0.100000)"
fill="#000000" stroke="none">
<path d="M7512 13781 c-3 -40 -5 -62 -16 -141 -7 -44 -22 -132 -31 -179 -44
-227 -162 -532 -297 -770 -27 -46 -48 -85 -48 -87 0 -4 -126 -196 -144 -219
-8 -11 -33 -45 -55 -75 -60 -82 -84 -112 -189 -239 -65 -78 -188 -214 -308
-340 -118 -123 -156 -163 -286 -302 -158 -169 -179 -192 -244 -264 -32 -36
-77 -85 -99 -109 -40 -42 -163 -179 -198 -220 -10 -12 -43 -48 -72 -82 -69
-76 -87 -97 -138 -159 -48 -56 -109 -128 -117 -135 -3 -3 -21 -25 -40 -50 -19
-25 -37 -47 -40 -50 -3 -3 -21 -25 -40 -50 -19 -25 -43 -54 -52 -65 -9 -11
-44 -56 -77 -100 -33 -44 -66 -87 -73 -95 -8 -8 -31 -41 -52 -72 -21 -32 -47
-66 -57 -77 -11 -11 -19 -24 -19 -29 0 -4 -8 -17 -18 -28 -25 -27 -219 -326
-274 -422 -129 -223 -308 -571 -308 -598 0 -7 -4 -14 -10 -16 -5 -1 -11 -12
-13 -23 -2 -11 -13 -42 -26 -70 -25 -54 -132 -336 -137 -360 -2 -5 -14 -48
-29 -95 -29 -93 -88 -312 -100 -375 -5 -22 -9 -44 -11 -50 -1 -5 -5 -23 -8
-40 -3 -16 -8 -41 -11 -55 -3 -14 -10 -54 -16 -90 -5 -36 -12 -78 -15 -95 -6
-36 -11 -71 -20 -145 -3 -30 -8 -64 -10 -75 -8 -41 -18 -234 -17 -330 0 -169
10 -248 58 -475 11 -51 13 -52 40 -33 13 10 25 21 25 25 0 4 13 21 30 40 16
18 37 55 46 83 8 27 18 57 21 65 4 8 7 17 8 20 1 3 4 12 7 20 3 8 11 33 18 55
7 22 17 51 23 65 6 14 11 27 11 30 5 21 61 158 69 168 5 6 6 12 3 12 -4 0 -1
12 7 28 8 15 34 72 57 127 24 55 56 128 71 162 16 34 29 66 29 71 0 6 3 12 8
14 4 2 36 62 71 133 67 135 244 459 266 485 7 8 21 31 31 50 11 19 52 87 92
150 40 63 78 124 85 135 7 11 14 22 17 25 11 11 50 70 50 75 0 3 5 11 10 18 6
7 61 84 122 172 62 88 118 166 125 173 7 8 18 23 24 34 12 21 284 379 358 469
25 32 68 85 96 119 27 35 54 68 60 74 6 6 33 40 60 76 28 35 57 71 66 80 9 8
36 40 60 70 65 81 72 89 94 114 11 13 38 45 60 71 22 27 50 59 63 72 12 13 22
26 22 28 0 3 8 13 18 23 9 10 37 42 62 72 66 78 102 120 130 151 14 15 39 44
55 65 17 21 35 42 40 48 17 19 128 150 163 194 19 22 41 50 50 61 33 38 118
144 137 169 6 8 22 27 38 44 15 17 27 34 27 38 0 3 8 15 18 26 10 10 39 48 65
84 26 36 54 74 63 85 33 41 144 206 144 214 0 4 9 16 20 26 11 10 20 22 20 26
0 4 13 27 29 51 66 99 271 478 271 502 0 3 9 25 19 49 61 131 133 339 167 477
2 8 8 35 15 60 13 54 15 62 24 120 4 25 9 54 11 65 23 121 23 390 -1 505 -3
14 -8 41 -11 60 -17 95 -72 247 -129 355 -58 110 -79 145 -86 145 -3 0 -6 -18
-7 -39z"/>
<path d="M8106 13268 c19 -90 19 -400 0 -543 -2 -16 -7 -55 -11 -85 -4 -30 -9
-58 -10 -61 -2 -3 -7 -26 -10 -51 -3 -25 -17 -85 -31 -134 -13 -49 -26 -96
-28 -105 -9 -36 -77 -224 -95 -264 -25 -52 -73 -160 -72 -162 0 -3 -123 -226
-158 -288 -27 -46 -217 -341 -232 -358 -5 -7 -40 -57 -78 -112 -116 -168 -431
-595 -465 -631 -6 -6 -18 -22 -26 -34 -8 -12 -20 -28 -25 -34 -6 -6 -24 -29
-40 -51 -17 -22 -34 -45 -40 -51 -5 -6 -21 -26 -35 -44 -40 -53 -280 -364
-293 -380 -7 -8 -35 -44 -62 -80 -27 -36 -54 -70 -60 -77 -30 -36 -35 -43 -35
-48 0 -3 -8 -13 -17 -23 -10 -10 -25 -29 -33 -42 -8 -13 -23 -30 -32 -39 -10
-8 -18 -21 -18 -27 0 -7 -4 -14 -8 -16 -5 -1 -49 -57 -98 -123 -49 -66 -91
-122 -94 -125 -3 -3 -18 -23 -33 -46 -15 -22 -35 -50 -45 -60 -9 -11 -21 -27
-27 -36 -21 -34 -134 -194 -147 -208 -8 -8 -50 -69 -93 -135 -44 -66 -82 -122
-85 -125 -11 -10 -162 -244 -172 -266 -6 -13 -15 -24 -20 -24 -4 0 -8 -4 -8
-9 0 -12 -63 -115 -72 -119 -5 -2 -8 -8 -8 -13 0 -5 -11 -28 -26 -50 -14 -22
-33 -55 -43 -72 -76 -132 -96 -168 -122 -214 -36 -64 -190 -371 -217 -433 -11
-25 -31 -70 -45 -100 -13 -30 -28 -66 -32 -80 -4 -14 -11 -29 -15 -35 -4 -5
-17 -39 -30 -75 -13 -36 -27 -70 -31 -76 -5 -6 -10 -19 -12 -30 -4 -19 -12
-43 -27 -79 -5 -11 -20 -58 -35 -105 -14 -47 -35 -112 -45 -145 -25 -79 -36
-121 -71 -270 -25 -109 -27 -118 -35 -169 -3 -22 -7 -43 -9 -46 -2 -4 -7 -28
-10 -56 -4 -27 -8 -58 -10 -69 -2 -11 -6 -40 -9 -65 -3 -25 -9 -67 -13 -95 -3
-27 -7 -69 -7 -92 -1 -24 -3 -43 -6 -43 -9 0 -14 -500 -5 -605 14 -178 22
-255 29 -295 4 -22 7 -44 21 -137 2 -12 6 -34 9 -50 4 -15 9 -41 12 -58 5 -31
6 -36 25 -120 17 -76 27 -116 39 -160 6 -22 14 -51 16 -65 3 -14 9 -34 14 -45
4 -11 22 -69 40 -130 18 -60 36 -114 39 -120 3 -5 6 -14 7 -20 2 -12 90 -259
127 -355 100 -265 266 -638 409 -919 92 -180 117 -228 184 -348 99 -177 250
-432 322 -539 23 -36 42 -67 42 -70 0 -4 14 -23 30 -44 17 -21 30 -41 30 -45
0 -7 124 -190 148 -217 8 -10 12 -18 8 -18 -4 0 5 -11 19 -25 14 -14 25 -32
25 -40 0 -8 4 -15 8 -15 4 0 16 -15 27 -32 10 -18 22 -35 25 -38 4 -3 20 -24
36 -46 43 -62 187 -258 194 -264 3 -3 32 -41 65 -85 76 -102 100 -125 130
-125 13 0 36 -5 51 -10 36 -14 42 -4 34 63 -8 71 -5 311 5 412 4 44 9 96 10
115 2 19 4 35 5 35 1 0 3 14 5 30 2 17 6 46 9 65 13 70 16 85 20 110 3 14 5
27 6 30 2 3 2 8 2 11 -1 4 3 22 9 40 6 19 12 45 15 59 2 14 9 36 13 50 9 23
18 61 22 85 0 6 5 18 11 28 5 10 11 26 13 35 2 9 10 36 19 60 8 23 16 46 17
50 1 4 5 16 10 27 11 30 22 59 24 65 0 3 8 21 16 40 9 19 27 60 40 90 41 96
169 342 232 445 66 109 128 207 137 215 7 7 29 42 37 60 4 8 10 17 13 20 4 3
24 30 45 60 66 94 174 236 190 250 8 7 15 17 15 23 0 5 8 17 18 26 10 9 42 48
72 86 30 39 59 75 65 81 5 6 28 33 50 60 22 26 47 55 55 64 8 9 33 38 54 64
22 27 49 58 60 70 12 12 48 52 81 90 33 38 69 79 80 92 62 69 173 191 193 213
13 14 49 55 80 90 32 35 75 83 97 106 22 24 67 73 100 111 33 37 72 81 88 96
15 16 27 31 27 34 0 3 10 15 23 28 12 13 41 45 64 72 23 27 52 60 64 74 11 14
38 45 58 70 20 25 38 47 41 50 5 5 124 150 145 178 5 8 21 26 35 42 14 16 41
52 60 79 19 28 38 50 43 51 4 0 7 7 7 15 0 8 3 15 8 15 4 1 30 32 57 71 28 39
59 83 71 98 99 123 346 514 483 761 28 51 170 337 194 390 8 19 28 62 42 95
15 33 28 65 29 70 2 6 10 28 20 50 9 22 35 92 58 155 22 63 44 124 49 135 14
35 60 189 62 208 1 9 5 17 9 17 4 0 7 3 6 8 -2 8 16 98 22 105 3 4 12 42 43
187 22 101 30 143 43 225 1 11 5 38 9 60 12 76 14 90 20 140 3 28 8 68 10 90
14 114 19 222 19 440 1 253 -4 349 -29 533 -3 20 -7 53 -9 72 -3 19 -8 51 -12
70 -3 19 -8 45 -9 57 -2 11 -6 29 -9 40 -3 10 -8 32 -11 48 -8 51 -12 68 -26
115 -7 25 -13 50 -14 55 -13 58 -99 321 -128 388 -68 158 -115 258 -134 290
-13 20 -21 37 -17 37 3 0 -4 13 -15 29 -12 16 -24 37 -28 47 -5 11 -28 52 -52
93 -40 68 -45 73 -57 56 -23 -31 -22 -107 2 -199 8 -32 17 -71 19 -85 4 -22
13 -79 30 -181 18 -104 22 -143 31 -270 13 -175 7 -513 -11 -610 -2 -14 -7
-45 -10 -70 -3 -25 -8 -57 -11 -72 -2 -16 -6 -40 -8 -55 -2 -16 -9 -50 -16
-78 -19 -82 -21 -89 -26 -115 -3 -14 -10 -41 -16 -60 -7 -19 -13 -39 -14 -45
-6 -33 -27 -102 -34 -110 -4 -5 -10 -22 -14 -37 -3 -15 -11 -40 -18 -55 -6
-15 -12 -33 -13 -39 -11 -48 -195 -430 -229 -474 -6 -8 -22 -35 -36 -60 -13
-25 -26 -47 -29 -50 -3 -3 -33 -45 -65 -95 -81 -124 -268 -366 -287 -373 -5
-2 -9 -8 -9 -14 0 -6 -13 -25 -29 -42 -25 -26 -140 -159 -190 -220 -9 -10 -25
-28 -36 -40 -11 -12 -56 -62 -100 -111 -44 -49 -91 -101 -105 -116 -14 -14
-65 -70 -115 -123 -49 -54 -115 -124 -145 -156 -30 -32 -104 -111 -165 -175
-60 -65 -130 -139 -155 -165 -25 -26 -85 -91 -135 -145 -49 -54 -103 -113
-120 -131 -38 -40 -73 -79 -155 -174 -72 -83 -120 -137 -135 -154 -6 -6 -28
-33 -50 -61 -22 -27 -47 -56 -55 -65 -8 -9 -26 -31 -40 -49 -14 -18 -30 -38
-35 -44 -20 -23 -60 -74 -85 -107 -98 -129 -130 -168 -160 -187 -64 -44 -107
-23 -150 71 -24 54 -75 207 -86 261 -2 11 -17 67 -33 125 -16 58 -32 119 -35
135 -2 17 -5 30 -6 30 -2 0 -4 9 -6 20 -2 11 -12 58 -23 105 -10 47 -22 103
-25 125 -4 22 -11 65 -16 95 -5 30 -12 75 -15 100 -3 25 -8 63 -11 85 -3 22
-7 54 -9 70 -22 178 -22 630 0 740 2 11 7 43 10 70 3 28 12 84 20 125 8 41 16
86 19 100 2 14 9 45 16 70 7 25 14 56 17 70 7 39 100 312 117 345 9 17 16 33
16 37 0 4 21 51 47 105 26 54 46 101 45 106 -1 4 2 7 7 7 5 0 14 13 19 28 5
16 28 59 51 96 23 38 41 72 41 77 0 5 5 9 10 9 6 0 10 7 10 15 0 8 5 15 10 15
6 0 10 6 10 13 0 7 9 23 19 34 11 12 17 23 14 27 -3 3 2 8 11 12 9 3 16 10 16
15 0 10 156 224 183 251 9 9 17 21 17 27 0 6 4 11 8 11 4 0 24 21 45 48 38 49
55 69 160 186 86 96 123 135 330 349 414 429 409 424 486 521 130 165 239 346
309 516 13 30 27 64 32 75 31 70 102 319 116 405 2 14 7 41 11 60 4 19 8 46 9
60 1 14 6 52 10 85 16 115 8 595 -11 625 -2 3 -6 30 -10 60 -4 30 -9 58 -11
61 -2 4 -6 22 -9 40 -6 45 -51 225 -60 238 -3 6 -9 24 -11 38 -3 15 -11 41
-18 58 -8 16 -28 68 -46 115 -18 47 -37 89 -42 95 -4 5 -8 14 -8 20 0 10 -60
126 -135 260 -34 60 -143 221 -186 273 -6 7 -33 41 -61 75 -58 70 -56 67 -158
171 -41 42 -77 76 -82 76 -4 0 -5 -10 -2 -22z"/>
<path d="M9440 10281 c-14 -28 -28 -51 -32 -51 -5 0 -8 -5 -8 -10 0 -9 -103
-169 -132 -205 -4 -5 -31 -42 -60 -81 -50 -66 -87 -114 -150 -187 -122 -145
-200 -230 -493 -532 -228 -236 -252 -261 -362 -381 -103 -115 -141 -159 -217
-254 -37 -47 -73 -92 -80 -101 -7 -8 -21 -30 -32 -47 -10 -18 -22 -32 -26 -32
-4 0 -8 -4 -8 -10 0 -5 -20 -40 -43 -77 -24 -37 -54 -88 -68 -113 -13 -25 -29
-52 -35 -60 -6 -8 -15 -26 -19 -40 -4 -14 -14 -32 -22 -42 -8 -9 -16 -22 -17
-30 -1 -7 -16 -44 -34 -81 -18 -38 -32 -72 -32 -76 0 -5 -11 -34 -25 -65 -14
-31 -24 -57 -24 -59 1 -1 -10 -40 -24 -87 -23 -73 -35 -120 -63 -245 -3 -11
-7 -38 -9 -60 -2 -22 -5 -40 -5 -40 -4 0 -14 -71 -26 -175 -2 -19 -6 -85 -10
-147 l-6 -112 61 -30 60 -31 38 38 c78 79 784 800 850 868 135 140 299 313
360 381 35 37 79 86 99 108 20 22 68 76 107 120 39 44 73 82 77 85 3 3 36 48
73 100 37 52 71 100 77 107 5 7 10 14 10 17 0 2 17 33 38 67 34 57 67 122 115
229 18 39 85 233 92 265 2 11 11 47 19 81 17 67 22 95 32 163 4 25 8 55 10 66
22 121 21 561 -1 659 -3 11 -7 41 -9 66 -2 25 -8 55 -13 68 -8 21 -10 19 -33
-27z"/>
<path d="M10207 6077 c-9 -23 -17 -47 -17 -54 0 -6 -3 -13 -7 -15 -5 -1 -30
-48 -57 -103 -48 -98 -133 -251 -184 -330 -68 -107 -248 -364 -262 -375 -4 -3
-11 -12 -16 -21 -9 -16 -31 -43 -144 -178 -30 -37 -58 -70 -62 -76 -11 -14
-147 -167 -221 -249 -50 -55 -300 -317 -377 -396 -172 -175 -411 -424 -495
-514 -49 -54 -108 -117 -130 -140 -41 -44 -185 -201 -214 -234 -9 -11 -45 -52
-81 -92 -117 -132 -96 -107 -180 -210 -25 -30 -47 -57 -51 -60 -3 -3 -18 -23
-34 -45 -17 -22 -37 -47 -45 -55 -9 -8 -23 -26 -33 -40 -10 -14 -30 -41 -45
-61 -76 -103 -172 -241 -172 -250 0 -5 -4 -9 -8 -9 -4 0 -28 -35 -52 -78 -25
-42 -50 -86 -57 -97 -71 -120 -236 -523 -247 -605 -1 -8 -5 -22 -9 -30 -3 -8
-8 -26 -11 -40 -2 -14 -11 -54 -20 -90 -8 -36 -18 -83 -21 -105 -4 -22 -8 -47
-10 -55 -2 -8 -7 -37 -10 -65 -4 -27 -8 -61 -11 -75 -24 -139 -23 -493 1 -650
5 -29 27 -142 40 -201 19 -90 112 -317 124 -303 4 5 16 32 26 59 19 52 155
325 174 347 6 7 38 51 72 98 143 198 306 362 629 635 63 53 144 122 179 154
35 31 73 64 85 74 227 197 676 641 896 887 36 40 83 91 105 114 22 23 52 58
66 77 15 18 38 46 52 61 13 15 40 47 58 72 18 25 36 46 41 46 4 0 7 3 6 8 -3
8 82 125 95 130 4 2 7 8 7 14 0 6 16 32 35 58 19 26 35 51 35 55 0 3 13 25 29
48 51 75 177 313 220 417 13 30 32 73 42 95 59 129 170 474 204 633 15 71 55
274 59 307 4 22 8 49 10 60 4 23 13 97 22 175 3 30 7 66 9 80 19 135 25 710
11 935 -15 228 -21 293 -28 300 -2 2 -11 -15 -21 -38z"/>
</g>
</svg>
